# xmcd
# 
# Track frame offsets:
#     150
#     18522
#     35325
# 
# Disc length: 686
# 
# Revision: 3
# Processed by: cddbd v1.5.2PL0 Copyright (c) Steve Scherf et al.
# Submitted via: fre:ac v1.0.27
# 
DISCID=1a02ac03
DTITLE=Viikate - Ei Ole Ket‰‰n Kelle Soittaa CDS
DYEAR=2002
DGENRE=Melodic Heavy Metal/Rautalanka
TTITLE0=Ei Ole Ket‰‰n Kelle Soittaa
TTITLE1=Arvovaltaa
TTITLE2=Routaisten Peltojen Pehtoorit (Instrumental)
EXTD=
EXTT0=
EXTT1=
EXTT2=
PLAYORDER=
